<svg fill="red" xmlns="http://www.w3.org/2000/svg" viewBox="0 0 64 80" x="0px" y="0px"><title>error, warning, notice</title><g><path d="M32,17.529a4.454,4.454,0,0,0-4.449,4.449v9.305a4.449,4.449,0,1,0,8.9,0v-9.3A4.454,4.454,0,0,0,32,17.529Zm1.449,13.754a1.449,1.449,0,1,1-2.9,0v-9.3a1.449,1.449,0,1,1,2.9,0ZM32,37.573a4.449,4.449,0,1,0,4.449,4.449A4.454,4.454,0,0,0,32,37.573Zm0,5.9a1.449,1.449,0,1,1,1.449-1.449A1.451,1.451,0,0,1,32,43.471ZM32,6.584A25.416,25.416,0,1,0,57.416,32,25.445,25.445,0,0,0,32,6.584Zm0,47.832A22.416,22.416,0,1,1,54.416,32,22.442,22.442,0,0,1,32,54.416Z"/></g></svg>