<svg fill='grey' xmlns="http://www.w3.org/2000/svg" xmlns:xlink="http://www.w3.org/1999/xlink" version="1.1" x="0px" y="0px" viewBox="0 0 100 125" style="enable-background:new 0 0 100 100;" xml:space="preserve"><style type="text/css">
	.st0{fill-rule:evenodd;clip-rule:evenodd;}
</style><path class="st0" d="M93.5,93.5c-1.9,1.9-5.1,1.9-7,0L64.8,71.9c2.6-2,5-4.4,7-7l21.7,21.7C95.5,88.5,95.5,91.6,93.5,93.5z M41,77  C21.1,77,5,60.9,5,41S21.1,5,41,5s36,16.1,36,36S60.9,77,41,77z M41,15c-14.4,0-26,11.6-26,26s11.6,26,26,26s26-11.6,26-26  S55.4,15,41,15z"/></svg>